<svg width="88" height="61" viewBox="0 0 88 61" fill="none" xmlns="http://www.w3.org/2000/svg">
<path fill-rule="evenodd" clip-rule="evenodd" d="M77.806 48.0483C77.0189 48.0483 76.3013 47.75 75.7615 47.2705C75.9455 45.6987 76.0682 44.1109 76.0887 42.4949C76.5793 42.1684 77.1722 41.971 77.806 41.971C79.4928 41.971 80.8728 43.3351 80.8728 45.0157C80.8743 45.4134 80.7957 45.8076 80.6424 46.1755C80.4889 46.5432 80.2631 46.8777 79.9781 47.1594C79.6933 47.4411 79.3548 47.6646 78.982 47.8171C78.6093 47.9697 78.2096 48.0483 77.806 48.0483ZM10.1939 48.0483C9.79036 48.0483 9.39072 47.9697 9.01799 47.8171C8.64523 47.6646 8.3067 47.4411 8.0218 47.1594C7.73687 46.8777 7.5112 46.5432 7.35768 46.1755C7.20417 45.8076 7.12583 45.4134 7.12718 45.0157C7.12718 43.3351 8.50723 41.9689 10.1939 41.9689C10.8277 41.9689 11.4207 42.1704 11.9113 42.4949C11.9318 44.1109 12.0545 45.6987 12.2385 47.2705C11.6779 47.77 10.9496 48.0471 10.1939 48.0483ZM77.6057 34.7088C76.7429 34.7088 75.9149 34.8257 75.1196 35.0171C72.0651 23.0438 62.141 13.7787 49.743 11.5884C49.191 11.4877 48.6901 11.4171 48.1279 11.3466C48.2199 8.34623 48.363 4.87838 52.8159 1.75912L52.1106 0C52.1106 0 43.4337 2.67192 42.4278 10.0308C41.9943 8.02786 37.9482 5.52318 35.9446 5.04764L34.9489 6.63951C34.9489 6.63951 37.6048 7.95733 38.2508 11.5884C25.857 13.7828 15.9349 23.0458 12.8804 35.0171C12.0665 34.817 11.2311 34.714 10.3923 34.7108C4.66354 34.7108 0 39.3212 0 45.0157C0 50.698 4.66354 55.3185 10.3923 55.3185C11.7355 55.3185 13.0154 55.0525 14.191 54.5971C15.0778 56.7903 16.2106 58.8786 17.5685 60.8235L26.1964 55.0606L26.1228 54.9638C23.8411 52.0582 22.4447 47.7783 22.2116 43.5185C21.952 38.8235 23.1091 34.1567 26.1371 31.4142C32.3769 26.151 39.1709 28.5489 43.4275 33.5965H44.5725C48.8291 28.5489 55.6231 26.151 61.865 31.4142C64.8908 34.1567 66.048 38.8235 65.7904 43.5205C65.5553 47.7783 64.1589 52.0582 61.8772 54.9658L61.8036 55.0585L70.4315 60.8235C71.789 58.8784 72.9219 56.79 73.809 54.5971C75.0175 55.07 76.3054 55.3148 77.6057 55.3185C83.3365 55.3185 88 50.698 88 45.0157C88 39.3192 83.3365 34.7088 77.6057 34.7088Z" fill="#049878"/>
</svg>
