<svg width="69" height="68" viewBox="0 0 69 68" fill="none" xmlns="http://www.w3.org/2000/svg">
<path d="M24.9355 0C21.1796 0 18.1352 3.04486 18.1352 6.79983C18.1344 7.69189 18.3095 8.57541 18.6508 9.39992C18.9921 10.2244 19.4927 10.9738 20.1242 11.6052C20.7557 12.2366 21.5056 12.7378 22.3311 13.08C23.1566 13.4222 24.0416 13.5988 24.9355 13.5997H31.737V6.79983C31.7386 4.99811 31.0227 3.26957 29.7472 1.99438C28.4717 0.719194 26.741 0.00180702 24.9355 0ZM24.9355 18.1329H6.80029C3.04437 18.1329 0 21.1777 0 24.9338C0 28.6887 3.04437 31.7337 6.80029 31.7337H24.9367C28.6914 31.7337 31.737 28.6887 31.737 24.9338C31.737 21.1777 28.6914 18.1329 24.9355 18.1329Z" fill="#2FBDEE"/>
<path d="M68.0026 24.9338C68.0026 21.1777 64.9571 18.1329 61.2011 18.1329C57.4451 18.1329 54.4009 21.1777 54.4009 24.9338V31.7337H61.2011C63.0067 31.7318 64.7374 31.0144 66.0129 29.7394C67.2884 28.4641 68.004 26.7355 68.0026 24.9338ZM49.8673 24.9338V6.79983C49.8687 4.99811 49.153 3.26957 47.8776 1.99438C46.6021 0.719194 44.8714 0.00180702 43.0658 0C39.3098 0 36.2656 3.04486 36.2656 6.79983V24.9327C36.2656 28.6898 39.3098 31.7348 43.0658 31.7348C44.8714 31.7329 46.6021 31.0155 47.8776 29.7404C49.153 28.4651 49.8687 26.7367 49.8673 24.935" fill="#29AD72"/>
<path d="M43.0658 68.0002C44.8714 67.9986 46.6021 67.2812 47.8776 66.0059C49.1531 64.7308 49.8687 63.0021 49.8673 61.2005C49.8687 59.3987 49.1531 57.6702 47.8776 56.3949C46.6021 55.1199 44.8714 54.4025 43.0658 54.4006H36.2656V61.2005C36.2656 64.9555 39.3098 68.0002 43.0658 68.0002ZM43.0658 49.8673H61.2022C64.9571 49.8673 68.0026 46.8227 68.0026 43.0666C68.004 41.2647 67.2884 39.5362 66.0129 38.2609C64.7374 36.9859 63.0067 36.2685 61.2011 36.2666H43.0658C39.3098 36.2666 36.2656 39.3116 36.2656 43.0666C36.2645 43.9585 36.44 44.842 36.7812 45.6665C37.1222 46.4911 37.6231 47.2404 38.2546 47.8719C38.886 48.5032 39.6358 49.0043 40.4615 49.3465C41.287 49.6887 42.172 49.8654 43.0658 49.8663" fill="#E9A929"/>
<path d="M3.43127e-06 43.0666C-0.000894084 43.9585 0.174289 44.842 0.515549 45.6665C0.856811 46.4911 1.35747 47.2404 1.98893 47.8719C2.6204 48.5032 3.3703 49.0043 4.19584 49.3465C5.02138 49.6887 5.90638 49.8654 6.80029 49.8663C8.60576 49.8643 10.3366 49.1469 11.6121 47.8719C12.8875 46.5966 13.6032 44.8681 13.6017 43.0666V36.2666H6.80029C3.04437 36.2666 3.43127e-06 39.3116 3.43127e-06 43.0666ZM18.1352 43.0666V61.1994C18.1352 64.9555 21.1796 68.0002 24.9355 68.0002C26.741 67.9986 28.4717 67.2812 29.7472 66.0059C31.0227 64.7308 31.7386 63.0021 31.737 61.2005V43.0666C31.7378 42.1744 31.5627 41.2906 31.2214 40.4661C30.8801 39.6415 30.3792 38.8922 29.7478 38.2607C29.1161 37.6292 28.366 37.1283 27.5403 36.786C26.7147 36.4438 25.8296 36.2674 24.9355 36.2666C21.1796 36.2666 18.1352 39.3116 18.1352 43.0666Z" fill="#DC1C50"/>
</svg>
