<svg width="95" height="38" viewBox="0 0 95 38" fill="none" xmlns="http://www.w3.org/2000/svg">
<path fill-rule="evenodd" clip-rule="evenodd" d="M0 0.0431091C0 0.0431091 3.74113 -0.436479 6.23521 1.80789C7.77394 3.19277 8.22218 5.39941 8.22218 5.39941L13.3161 25.5421L17.5509 9.05425C17.9644 7.3016 18.707 5.13537 19.8831 3.66966C21.383 1.80385 24.4297 1.68664 24.7549 1.68664C25.0787 1.68664 28.1254 1.80385 29.6239 3.66966C30.8014 5.13537 31.544 7.3016 31.9575 9.05425L36.1923 25.5421L41.2849 5.39806C41.2849 5.39806 41.7344 3.19142 43.2732 1.80654C45.7673 -0.436479 49.507 0.0431091 49.507 0.0431091L39.7542 37.6894C39.7542 37.6894 36.5375 37.9266 34.9279 37.0886C32.8138 35.9893 31.8076 35.1393 30.5271 30.0174L30.3946 29.4853C29.9277 27.6006 29.2132 24.649 28.4893 21.6542L28.2725 20.7557L28.0558 19.8612C27.0135 15.5529 26.0527 11.5856 25.8989 11.0817C25.7544 10.6089 25.5831 9.48265 24.7549 9.48265C23.9427 9.48265 23.7567 10.6102 23.6082 11.0817C23.4342 11.6368 22.2835 16.4097 21.1248 21.2043L20.908 22.1028C20.3159 24.5651 19.7178 27.0259 19.1137 29.4853L18.9799 30.0174C17.7008 35.1393 16.6946 35.9893 14.5805 37.0886C12.9695 37.9266 9.75289 37.6894 9.75289 37.6894L0 0.0431091ZM58.8706 6.73579V8.07621L58.8732 8.07487V30.4754C58.8545 35.0733 58.3742 36.0931 56.2868 37.1519C54.6638 37.9737 52.1831 37.6625 52.1831 37.6625V12.5717C52.1831 11.3121 52.6046 10.4863 54.1594 9.74534C55.0866 9.30213 55.9523 8.96399 56.8515 8.4615C58.2577 7.68284 58.8706 6.73579 58.8706 6.73579ZM61.5493 0.168395C61.5493 0.168395 66.7368 -0.738243 69.3058 1.6597C70.9489 3.19546 72.7874 5.95713 72.7874 5.95713L77.3099 12.6458C77.5294 12.9933 77.8157 13.3732 78.2733 13.3732C78.7323 13.3732 79.0199 12.9933 79.2394 12.6458L83.7619 5.95713C83.7619 5.95713 85.6004 3.19546 87.2435 1.6597C89.8125 -0.738243 95 0.168395 95 0.168395L82.7089 18.9249L94.9666 37.6248L94.9237 37.6302C94.4153 37.6908 89.5234 38.2 87.0896 35.9247C85.4451 34.3916 83.7619 31.894 83.7619 31.894L79.2394 25.2067C79.0199 24.8564 78.7323 24.4792 78.2747 24.4792C77.8157 24.4792 77.5294 24.8564 77.3099 25.2067L72.7874 31.894C72.7874 31.894 71.1951 34.3916 69.552 35.9247C66.983 38.3267 61.5814 37.6248 61.5814 37.6248L73.8391 18.9262L61.5493 0.168395ZM58.8197 0H58.8732C58.8732 2.57307 58.6244 4.09806 57.0174 5.2849C56.2672 5.84032 55.4452 6.28994 54.5742 6.62128C53.1451 7.14533 52.1831 8.08295 52.1831 8.08295C52.1831 3.40023 52.8923 1.7055 54.7923 0.700522C55.9496 0.0916068 57.8323 0.00808295 58.5655 0L58.8197 0Z" fill="#00208F"/>
</svg>
