<svg width="32" height="32" viewBox="0 0 32 32" fill="none" xmlns="http://www.w3.org/2000/svg">
<rect width="32" height="32" rx="3" fill="#163749"/>
<path d="M10 13L-1.66869e-07 13C-6.01277e-07 17.969 4.47884 22 10 22L10 13Z" fill="#049878"/>
<path d="M21 -4.37114e-07L21 11C15.4788 11 11 6.07327 11 0L21 -4.37114e-07Z" fill="#FFCC32"/>
<path d="M0 13L10 13C10 7.47884 5.52115 3 0 3L0 13Z" fill="#049878"/>
<path d="M21 11L21 4.72849e-07C27.0733 7.3832e-07 32 4.92673 32 11L21 11Z" fill="#FFCC32"/>
<path d="M10 32H19C19 26.4788 14.969 22 10 22L10 32Z" fill="#F15B30"/>
</svg>
