<svg width="153" height="159" viewBox="0 0 153 159" fill="none" xmlns="http://www.w3.org/2000/svg">
<path d="M150.751 133.232C152.019 133.232 153.001 134.214 153.001 135.45C153.001 136.717 152.019 137.667 150.751 137.667C149.484 137.667 148.471 136.685 148.471 135.45C148.471 134.214 149.453 133.232 150.751 133.232ZM150.72 133.676C149.738 133.676 149.009 134.468 149.009 135.45C149.009 136.432 149.738 137.224 150.72 137.224C151.702 137.224 152.399 136.432 152.399 135.45C152.43 134.468 151.702 133.676 150.72 133.676ZM150.371 136.59H149.865V134.373C150.055 134.341 150.34 134.309 150.72 134.309C151.132 134.309 151.322 134.373 151.48 134.468C151.607 134.563 151.702 134.753 151.702 134.943C151.702 135.196 151.512 135.386 151.258 135.482V135.513C151.48 135.577 151.607 135.767 151.67 136.052C151.733 136.4 151.765 136.527 151.829 136.59H151.29C151.227 136.495 151.195 136.305 151.1 136.052C151.068 135.798 150.942 135.703 150.656 135.703H150.403V136.59H150.371ZM150.403 135.355H150.656C150.942 135.355 151.163 135.26 151.163 135.038C151.163 134.848 151.005 134.69 150.688 134.69C150.561 134.69 150.466 134.69 150.403 134.721V135.355Z" fill="#001655"/>
<path d="M67.1876 144.573C65.6037 144.098 64.1149 143.496 64.1149 142.577C64.1149 142.039 64.5584 141.247 65.8254 141.247C67.5994 141.247 67.6944 142.324 67.7261 142.767H73.6181C73.1112 137.477 68.518 136.432 65.8888 136.432C61.7074 136.432 58.0962 139.093 58.0962 143.242C58.0962 145.967 60.2819 147.677 62.8795 148.501C66.7441 149.99 68.2329 150.18 68.2329 151.542C68.2329 152.524 67.1559 153.094 66.1105 153.094C65.8571 153.094 64.0832 153.094 63.8298 151.257H57.8428C58.3813 156.547 63.0062 157.941 66.0472 157.941C70.5137 157.941 74.2516 155.343 74.2516 150.908C74.2199 146.537 70.577 145.523 67.1876 144.573Z" fill="#001655"/>
<path d="M99.9122 136.805C97.7898 136.805 95.7307 137.565 94.527 138.642C93.9568 139.149 93.9251 139.783 93.5133 140.385C93.1649 139.688 92.7531 139.149 92.3096 138.706C90.8208 137.154 88.635 136.773 87.2729 136.773C83.0598 136.773 81.6343 139.593 81.6343 139.593C81.6343 138.864 81.6343 138.136 81.6343 137.439H75.584V157.585H82.0145V146.878C82.0145 146.245 82.0145 145.168 82.458 144.186C82.9014 143.204 83.725 142.412 85.4356 142.412C86.9561 142.412 87.6847 143.172 88.0965 144.123C88.445 145.041 88.445 146.087 88.445 146.625V157.585H94.9071V146.593C94.9071 145.992 94.9071 145.01 95.3506 144.091C95.7624 143.172 96.586 142.412 98.2649 142.412C99.8171 142.412 100.577 143.109 100.957 144.059C101.369 144.978 101.369 146.055 101.369 146.878V157.585H107.8V146.593C107.8 142.127 107.103 140.796 105.202 138.801C103.587 137.154 101.338 136.805 99.9122 136.805Z" fill="#001655"/>
<path d="M141.157 136.811C137.577 136.811 136.278 138.648 135.613 139.63C135.613 138.901 135.613 138.173 135.613 137.476H129.468V157.623H136.025V146.662C136.025 144.603 136.5 142.449 139.478 142.449C142.17 142.449 142.646 144.413 142.646 146.631V157.623H149.013V144.065C149.013 141.372 147.936 136.811 141.157 136.811Z" fill="#001655"/>
<path d="M117.553 136.873C115.336 136.905 112.96 137.19 111.249 138.33V143.177C113.055 142.353 115.114 141.973 116.508 141.973C117.902 141.973 120.594 142.1 120.594 146.25C119.644 144.919 117.807 144.412 115.779 144.412C113.752 144.412 108.684 145.743 108.684 151.064C108.684 156.386 112.295 158.382 115.684 158.382C119.074 158.382 120.626 156.513 120.943 155.879L120.911 157.685H127.342V143.81C127.31 138.299 121.101 136.873 117.553 136.873ZM117.363 153.915C115.748 153.915 114.417 152.617 114.417 150.969C114.417 149.354 115.748 148.023 117.363 148.023C118.979 148.023 120.309 149.354 120.309 150.969C120.309 152.617 119.01 153.915 117.363 153.915Z" fill="#001655"/>
<path d="M46.5987 136.465C39.2813 136.465 35.7334 142.23 35.7334 147.14V147.172C35.7334 152.113 39.2496 157.879 46.5987 157.879C53.9479 157.879 57.464 152.113 57.464 147.172C57.464 142.23 53.9479 136.465 46.5987 136.465ZM46.5987 152.208C43.9695 152.208 41.7838 150.086 41.7838 147.172V147.14C41.7838 144.194 44.0012 142.072 46.5987 142.072C49.2279 142.072 51.4453 144.226 51.4453 147.14C51.4453 150.086 49.2279 152.208 46.5987 152.208Z" fill="#001655"/>
<path d="M29.6521 139.85C29.6521 139.09 29.6521 138.33 29.6521 137.601H27.6564H23.4434V137.665V157.748H27.6881H30.0322V146.914C30.0322 144.095 31.4894 142.955 34.5621 142.955C34.6254 142.955 35.6708 142.955 35.7341 142.955V136.904C32.2496 136.904 30.2223 138.773 29.6521 139.85Z" fill="#001655"/>
<path d="M75.2016 54.0732C71.1786 54.0732 67.9159 57.3359 67.9159 61.3273C67.9159 65.3503 71.1786 68.5814 75.2016 68.5814C79.2247 68.5814 82.4874 65.3186 82.4874 61.3273C82.4874 57.3359 79.2247 54.0732 75.2016 54.0732ZM118.156 57.3359C116.255 36.6823 99.8466 20.2418 79.193 18.2778V0H70.8935V18.2778C50.2716 20.2418 33.8311 36.6506 31.9305 57.2726H13.5576V65.5404H31.9621C33.9578 86.0672 50.335 102.413 70.9252 104.345V122.94H79.2247V104.345C99.7516 102.381 116.129 86.0989 118.156 65.6354H136.466V57.3676H118.156V57.3359ZM70.8935 26.1021V33.2928C58.5711 35.1618 48.8461 44.9501 47.0722 57.2726H39.7547C41.592 40.9271 54.548 27.9711 70.8935 26.1021ZM39.7547 65.5404H47.0722C48.9095 77.8311 58.6027 87.5244 70.8619 89.3934V96.5208C54.6114 94.6518 41.6871 81.7591 39.7547 65.5404ZM110.268 65.6037C108.304 81.7908 95.4118 94.6201 79.193 96.5208V89.4567C91.6422 87.7145 101.494 77.9262 103.331 65.5404H91.4838C89.5831 72.8578 82.9309 78.2746 75.0116 78.2746C65.6351 78.2746 58.0325 70.6721 58.0325 61.2956C58.0325 51.9191 65.6351 44.3165 75.0116 44.3165C82.9943 44.3165 89.7099 49.8284 91.5155 57.2409H103.331C101.525 44.7917 91.6422 34.9401 79.1613 33.1978V26.0704C95.5068 27.9711 108.463 40.9588 110.3 57.3042H103.489V65.572H110.268V65.6037Z" fill="#E60020"/>
<path d="M75.013 78.3003C65.6365 78.3003 58.0023 70.6977 58.0023 61.2895C58.0023 51.9131 65.6048 44.2788 75.013 44.2788C82.9957 44.2788 89.7113 49.8224 91.5169 57.2348H103.364C101.527 44.5322 91.3268 34.5856 78.5609 33.0967C77.4521 32.97 76.3434 32.875 75.2347 32.875C73.9993 32.875 72.7639 32.97 71.5602 33.1284C58.7309 34.7756 48.6258 44.9441 47.0103 57.7734C46.8519 58.9454 46.7568 60.1175 46.7568 61.3212C46.7568 62.4933 46.8519 63.6337 46.9786 64.774C48.5308 77.635 58.6992 87.8351 71.5285 89.4823C72.7322 89.6407 73.936 89.7358 75.2031 89.7358C76.3434 89.7358 77.4521 89.6407 78.5292 89.514C91.2635 88.0252 101.464 78.1102 103.333 65.4709H91.4535C89.5529 72.8834 82.9323 78.3003 75.013 78.3003Z" fill="#001655"/>
<path d="M67.9443 61.2964C67.9443 65.3511 71.2388 68.6139 75.2618 68.6139C79.3165 68.6139 82.5792 65.3194 82.5792 61.2964C82.5792 57.2417 79.2848 53.9473 75.2618 53.9473C71.2388 53.9789 67.9443 57.2417 67.9443 61.2964Z" fill="#002B60"/>
<path d="M15.2685 149.325C14.5082 151.099 12.7976 152.239 10.8653 152.239C8.26778 152.239 6.05036 150.117 6.05036 147.203V147.171C6.05036 144.225 8.26778 142.103 10.8653 142.103C12.7976 142.103 14.5399 143.275 15.3001 145.112H21.5089C20.6536 140.772 17.1691 136.527 10.8653 136.527C3.54786 136.527 0 142.293 0 147.203V147.234C0 152.176 3.51618 157.941 10.8653 157.941C17.1691 157.941 20.6536 153.665 21.5089 149.357H15.2685V149.325Z" fill="#001655"/>
</svg>
