<svg width="152" height="89" viewBox="0 0 152 89" fill="none" xmlns="http://www.w3.org/2000/svg">
<path fill-rule="evenodd" clip-rule="evenodd" d="M24.402 59.4123H40.2554V62.4825H30.4596V65.8339H39.8711V68.9025H30.4596V72.578H40.6137V75.6467H24.402V59.4123ZM66.6414 62.6028H61.2093V59.4123H78.3V62.6028H72.6982V75.6467H66.6414V62.6028ZM80.0598 59.4123H86.1167V75.6467H80.0598V59.4123ZM128.855 59.4123H134.912V72.4554H144.461V75.6467H128.855V59.4123ZM12.3127 71.7428L18.3606 59.4123H23.9153L15.4293 75.6166H9.35051L0 59.4123H5.64817L12.3127 71.7428ZM57.1137 75.6467H62.8854C62.8854 75.6467 57.9116 69.0569 57.1137 68.0519C59.4504 67.2427 60.7251 65.868 60.7251 64.0928C60.7251 61.6758 58.1634 59.4431 53.842 59.4431H43.3606V75.6459H48.5968V62.4118H52.3292C54.3051 62.4118 55.4653 63.0642 55.4653 64.2715C55.4653 66.7219 52.6079 67.302 50.7872 67.5376L57.1137 75.6467ZM119.732 59.396H112.305L105.804 71.8143C105.385 72.0727 103.398 72.5301 101.41 72.4805C96.7037 72.3627 93.9617 70.6363 93.9617 67.6058C93.9617 64.2813 96.7655 62.1364 101.067 62.1364C103.568 62.1364 105.06 62.5158 105.961 62.9091L106.45 59.7892C105.306 59.4829 103.055 59.1133 100.742 59.1133C93.2443 59.1133 87.7017 61.9122 87.7017 67.6058C87.7017 74.0892 95.0439 75.6353 101.107 75.6353C104.795 75.6353 108.619 75.1608 110.355 74.6384L111.622 72.1694H120.156L121.851 75.6459H128.327L119.732 59.396ZM113.023 69.0975L115.943 62.7506H116.008L118.723 69.0975H113.023ZM148.422 72.3684H146.359V72.8128H147.172V75.4769H147.619V72.8128H148.422V72.3684ZM152 72.3684H151.351L150.597 74.5612H150.582L149.858 72.3684H149.203V75.4769H149.606V72.8128H149.622L150.471 75.4769H150.707L151.58 72.8128H151.595V75.4769H151.999L152 72.3684ZM5.75135 79.6309H8.64286L13.139 85.9055H13.1723V79.6309H15.4228V88.0203H12.5475L8.03515 81.7466H8.00103V88.0203H5.75135V79.6309ZM25.2616 79.6326H32.1934V80.9544H27.6169V83.0172H31.8059V84.3391H27.6169V86.6977H32.2267V88.0195H25.2616V79.6326ZM43.9975 80.9544H40.6323V79.6326H49.7172V80.9544H46.352V88.0203H43.9975V80.9544ZM56.7408 79.6309H59.2147L61.4027 86.3385H61.436L63.4387 79.6309H66.6357L68.705 86.3385H68.7391L70.9433 79.6309H73.2312L70.169 88.0203H67.1402L65.0205 81.3135H64.9864L62.8968 88.0203H59.8525L56.7408 79.6309ZM83.135 83.8029C83.135 82.3226 84.092 80.8082 86.4262 80.8082C88.762 80.8082 89.7191 82.3218 89.7191 83.8029C89.7191 85.3165 88.8286 86.8447 86.4262 86.8447C84.0254 86.8447 83.135 85.3165 83.135 83.8029ZM80.6789 83.8029C80.6789 86.3751 82.6637 88.1666 86.4262 88.1666C90.1391 88.1666 92.1751 86.3385 92.1751 83.8029C92.1751 81.2656 90.1058 79.4855 86.4262 79.4855C82.697 79.4855 80.6789 81.229 80.6789 83.8029ZM103.884 80.9544H104.657C105.832 80.9544 107.144 81.0389 107.144 82.0447C107.144 83.0871 105.817 83.2065 104.657 83.2065H103.884V80.9544ZM101.53 88.0203H103.884V84.5292H104.64C105.632 84.5292 105.935 84.7689 106.271 85.3953L107.683 88.0195H110.307L108.423 84.7331C108.188 84.3602 107.816 83.9036 107.179 83.8671V83.8435C108.675 83.6989 109.601 82.8816 109.601 81.9009C109.601 79.5716 106.59 79.6318 104.068 79.6318H101.529L101.53 88.0203ZM119.508 79.6309H121.863V83.2382L126.103 79.6309H128.997L124.169 83.5851L129.2 88.0203H126.12L121.896 84.1271H121.863V88.0203H119.508V79.6309ZM143.176 81.1689C142.401 80.9318 141.595 80.8105 140.785 80.809C139.977 80.809 138.933 81.0617 138.933 81.9757C138.933 83.4291 144.084 82.8166 144.084 85.6301C144.084 87.4695 142.048 88.1674 139.674 88.1674C138.395 88.1674 137.823 88.0471 136.663 87.8424L136.88 86.3288C137.688 86.6416 138.615 86.8463 139.539 86.8463C140.433 86.8463 141.627 86.5213 141.627 85.7641C141.627 84.1644 136.476 84.8266 136.476 82.048C136.476 80.172 138.512 79.4871 140.583 79.4871C141.594 79.4871 142.535 79.5838 143.394 79.7804L143.176 81.1689Z" fill="black"/>
<path fill-rule="evenodd" clip-rule="evenodd" d="M81.1849 43.2174C111.219 30.639 109.822 2.44367 42.8827 14.6743C34.8541 16.1416 30.2377 17.327 28.9808 17.8331C28.7647 17.9201 28.2651 18.1776 28.8622 18.1484C29.2823 18.1281 32.3996 17.6495 41.3975 16.443C97.3348 8.94004 101.068 29.9557 81.3458 42.8818C80.7519 43.2474 80.8608 43.3823 81.1849 43.2174Z" fill="#3C68AF"/>
<path fill-rule="evenodd" clip-rule="evenodd" d="M43.5954 24.2693C38.4364 25.1337 35.2215 25.9315 34.3627 26.2809C33.9459 26.4499 34.0158 26.5515 34.2758 26.5116C34.708 26.445 38.1959 26.0461 42.5474 25.5562C94.004 19.7683 77.7712 41.8288 67.7675 46.7279L60.3271 33.2144H54.0257L62.5532 47.607H68.5052C91.2287 36.5511 93.0331 15.9798 43.5954 24.2693Z" fill="#3C68AF"/>
<path fill-rule="evenodd" clip-rule="evenodd" d="M95.6785 39.7675C133.494 22.5062 128.909 -12.7794 42.1022 4.76468C31.8848 6.82993 26.0693 8.65713 24.485 9.35422C24.2128 9.47365 23.5864 9.82138 24.3469 9.76044C24.8815 9.7182 28.8202 8.85537 40.279 7.08179C114.514 -4.41034 120.505 22.0398 95.8678 39.3337C95.1261 39.8236 95.2723 39.991 95.6785 39.7675Z" fill="#3C68AF"/>
</svg>
