<svg width="152" height="95" viewBox="0 0 152 95" fill="none" xmlns="http://www.w3.org/2000/svg">
<path d="M151.846 79.8613H6.24219V84.6005H151.846V79.8613Z" fill="black"/>
<path d="M151.846 89.2617H6.24219V94.0009H151.846V89.2617Z" fill="black"/>
<path d="M12.8547 4.85669V21.5026H7.15537V4.85669H0V0H19.9685V4.85669H12.8547Z" fill="black"/>
<path d="M42.3515 13.3168H27.3751V21.5026H21.6758V0H27.3751V8.22505H42.3515V0H48.0508V21.5026H42.3515V13.3168Z" fill="black"/>
<path d="M50.7109 21.5026V0H66.9353V4.85669H56.4103V8.46006H64.9385V13.0426H56.4103V16.6851H66.9353V21.5026H50.7109Z" fill="black"/>
<path d="M12.8151 34.6222H11.9415V48.3698H6.24219V26.8672H12.9399L26.2107 40.3014H27.0843V26.8672H32.7836V48.3698H26.3355L12.8151 34.6222Z" fill="black"/>
<path d="M35.4043 48.3698V26.8672H51.6703V31.7239H41.1452V35.3664H49.6734V39.9098H41.1452V43.5523H51.6703V48.3698H35.4043Z" fill="black"/>
<path d="M52.168 26.8672H58.5329L63.4834 43.9831H64.8147L69.3076 26.8672H80.0406L85.2408 43.9831H86.572L90.8569 26.8672H97.3467L91.0233 48.3698H80.8727L75.5893 31.2539H74.0085L69.2244 48.3698H59.0737L52.168 26.8672Z" fill="black"/>
<path d="M4.95117 60.3194C4.95117 55.776 8.82006 53.3477 13.7706 53.3477C16.6411 53.3477 19.8027 54.0527 21.6332 55.0318L20.5516 59.6144C18.6379 58.5569 15.7674 57.9693 13.6042 57.9693C11.8153 57.9693 10.6505 58.596 10.6505 59.7319C10.6505 63.2177 22.3404 61.2594 22.3404 68.5052C22.3404 72.3436 19.4283 75.7511 13.3546 75.7511C10.7753 75.7511 7.82164 75.4378 5.45038 74.3803L5.65839 69.4452C8.02965 70.5028 10.6089 71.1294 13.521 71.1294C16.017 71.1294 16.6411 70.3069 16.6411 69.2886C16.6411 66.0377 4.95117 67.9177 4.95117 60.3194Z" fill="black"/>
<path d="M41.2248 74.9657C39.3943 75.5924 37.8551 75.7099 35.2758 75.7099C28.2036 75.7099 23.3779 70.4615 23.3779 64.5082C23.3779 58.3981 28.3701 53.3848 35.775 53.3848C37.6887 53.3848 39.8103 53.4239 41.5576 54.0114L41.0168 58.9073C39.0199 58.2806 37.6055 58.2023 35.9414 58.2023C31.6981 58.2023 29.2437 60.5523 29.2437 64.5082C29.2437 68.5032 32.0725 70.814 36.1078 70.814C38.6871 70.814 39.4775 70.579 41.2248 70.0307V74.9657Z" fill="black"/>
<path d="M64.5669 67.0569H49.5906V75.2428H43.8496V53.7793H49.5906V61.9652H64.5669V53.7793H70.2663V75.2428H64.5669V67.0569Z" fill="black"/>
<path d="M85.2842 53.3477C93.1468 53.3477 98.8045 57.1468 98.8045 64.4319C98.8045 71.9911 92.6892 75.712 85.2842 75.712C77.796 75.712 71.6807 71.9128 71.6807 64.4711C71.6807 57.3818 77.2552 53.3477 85.2842 53.3477ZM85.201 71.1686C89.6939 71.1686 92.8972 69.0144 92.8972 64.2752C92.8972 59.9669 89.6523 57.8127 85.201 57.8127C80.7497 57.8127 77.5048 59.9277 77.5048 64.4319C77.5464 69.0144 80.7913 71.1686 85.201 71.1686Z" fill="black"/>
<path d="M113.403 53.3477C121.266 53.3477 126.924 57.1468 126.924 64.4319C126.924 71.9911 120.808 75.712 113.403 75.712C105.915 75.712 99.7998 71.9128 99.7998 64.4711C99.7998 57.3818 105.333 53.3477 113.403 53.3477ZM113.32 71.1686C117.813 71.1686 121.016 69.0144 121.016 64.2752C121.016 59.9669 117.771 57.8127 113.32 57.8127C108.869 57.8127 105.624 59.9277 105.624 64.4319C105.666 69.0144 108.869 71.1686 113.32 71.1686Z" fill="black"/>
<path d="M128.464 53.7793H134.163V70.1511H151.844V75.2428H128.464V53.7793Z" fill="black"/>
</svg>
