<svg width="152" height="31" viewBox="0 0 152 31" fill="none" xmlns="http://www.w3.org/2000/svg">
<g clipPath="url(#clip0_2078_9516)">
<path fill-rule="evenodd" clip-rule="evenodd" d="M2.28844 0C1.68151 0 1.09944 0.241392 0.67027 0.671072C0.241103 1.10075 0 1.68352 0 2.29118L0 28.7088C0 29.3165 0.241103 29.8992 0.67027 30.3289C1.09944 30.7586 1.68151 31 2.28844 31H28.246C28.8529 31 29.435 30.7586 29.8641 30.3289C30.2933 29.8992 30.5344 29.3165 30.5344 28.7088V2.29118C30.5344 1.68352 30.2933 1.10075 29.8641 0.671072C29.435 0.241392 28.8529 0 28.246 0L2.28844 0ZM24.5593 7.86625C24.6831 7.01516 24.1047 6.22466 23.2666 6.09855C20.1034 5.62368 17.1063 8.47709 13.9094 14.6574C11.3993 19.5103 9.14181 21.9494 7.60422 21.8339C6.75978 21.7705 6.02441 22.4144 5.96178 23.2711C5.89985 24.1286 6.53389 24.8754 7.37833 24.9388C10.4908 25.172 13.4478 22.246 16.625 16.1045C19.1126 11.2946 21.3349 8.95548 22.8183 9.17882C23.6557 9.30352 24.4354 8.71664 24.5593 7.86554V7.86625Z" fill="url(#paint0_linear_2078_9516)"/>
<path fill-rule="evenodd" clip-rule="evenodd" d="M37.7829 24.4486V6.55312H41.3331V21.2971H49.128V24.4472H37.7822L37.7829 24.4486ZM57.0222 24.6747C53.1497 24.6747 50.5678 21.9784 50.5678 18.2986C50.5678 14.6188 53.1497 11.9471 57.0222 11.9471C60.7954 11.9471 63.4519 14.5187 63.4519 18.2986C63.4519 22.0538 60.7954 24.6747 57.0222 24.6747ZM57.0222 21.7015C58.7603 21.7015 60.1502 20.315 60.1502 18.2986C60.1502 16.2822 58.8096 14.8956 57.0222 14.8956C55.1356 14.8956 53.8696 16.3583 53.8696 18.2986C53.8696 20.2143 55.1602 21.7015 57.0222 21.7015ZM69.1364 24.6747C67.0514 24.6747 65.6862 23.3389 65.6862 20.5672V14.871H64.2457V12.1233H65.6862V8.11721L68.9373 7.76493V12.1247H72.2144V14.8717H68.938V20.0888C68.938 21.1724 69.211 21.6769 69.9802 21.6769C70.3778 21.6769 70.9738 21.5254 71.5199 21.2478L72.339 23.8941C71.5691 24.3232 70.7747 24.6761 69.1372 24.6761L69.1364 24.6747ZM78.2966 24.6747C76.2115 24.6747 74.8463 23.3389 74.8463 20.5672V14.871H73.4065V12.1233H74.8463V8.11721L78.0981 7.76493V12.1247H81.3746V14.8717H78.0981V20.0888C78.0981 21.1724 78.3711 21.6769 79.141 21.6769C79.5379 21.6769 80.1339 21.5254 80.68 21.2478L81.4991 23.8941C80.7293 24.3232 79.9348 24.6761 78.2966 24.6761V24.6747ZM85.5208 10.4605C84.3287 10.4605 83.4603 9.55307 83.4603 8.41875C83.4603 7.3098 84.3287 6.40234 85.5208 6.40234C86.6875 6.40234 87.5812 7.3098 87.5812 8.41875C87.5812 9.55307 86.6875 10.4605 85.5208 10.4605ZM83.8572 24.4479V12.124H87.109V24.4479H83.8572ZM101.036 18.1725C101.036 18.5755 100.986 19.1553 100.961 19.3568H92.4466C92.8435 20.8441 94.0103 21.7262 95.6492 21.7262C97.0144 21.7262 97.9573 21.1464 98.6033 20.3404L100.713 22.3314C99.6955 23.6665 98.1311 24.6747 95.4254 24.6747C91.7021 24.6747 89.0703 22.1292 89.0703 18.2732C89.0703 14.518 91.6275 11.9471 95.227 11.9471C98.6526 11.9471 101.036 14.568 101.036 18.1725ZM95.2023 14.8203C93.8864 14.8203 92.8435 15.5769 92.4713 16.9881H97.8088C97.4858 15.6777 96.6168 14.8203 95.2023 14.8203Z" fill="#18C8CA"/>
<path fill-rule="evenodd" clip-rule="evenodd" d="M123.676 24.4472V5.89648H126.928V24.4472H123.676ZM119.43 10.4591C118.239 10.4591 117.37 9.55167 117.37 8.41735C117.37 7.30839 118.239 6.40164 119.43 6.40164C120.597 6.40164 121.491 7.30839 121.491 8.41735C121.491 9.55167 120.597 10.4591 119.43 10.4591ZM103.369 24.4472V6.55171H115.061V9.70244H106.82V14.4912H113.696V17.6666H106.82V24.4472H103.369ZM117.768 12.1226V24.4465H121.019V12.1226H117.768ZM140.779 19.3561C140.824 18.9626 140.848 18.5671 140.854 18.1711C140.854 14.5673 138.471 11.9457 135.045 11.9457C131.446 11.9457 128.889 14.5173 128.889 18.2725C128.889 22.1285 131.52 24.674 135.244 24.674C137.95 24.674 139.513 23.6658 140.531 22.33L138.421 20.339C137.776 21.145 136.832 21.7248 135.467 21.7248C133.829 21.7248 132.662 20.8427 132.265 19.3561H140.779ZM135.02 14.8188C133.704 14.8188 132.662 15.5755 132.29 16.9867H137.627C137.304 15.6763 136.435 14.8196 135.02 14.8196V14.8188ZM142.393 22.8591C143.709 24.0181 145.372 24.674 147.308 24.674C150.486 24.674 152 23.0106 152 20.8427C152 18.3979 150.461 17.8181 147.83 16.8353C146.638 16.3815 146.042 16.0286 146.042 15.5248C146.042 14.8696 146.688 14.6173 147.185 14.6173C148.078 14.6173 149.17 15.0211 150.089 15.9278L151.678 13.483C150.287 12.3994 148.922 11.9457 147.259 11.9457C144.752 11.9457 142.865 13.383 142.865 15.6002C142.865 17.9949 144.603 18.9524 146.613 19.633C148.177 20.1621 148.798 20.4397 148.798 20.9688C148.798 21.5733 148.277 21.9763 147.333 21.9763C145.992 21.9763 144.95 21.4979 143.957 20.5658L142.393 22.8591Z" fill="#006B78"/>
</g>
<defs>
<linearGradient id="paint0_linear_2078_9516" x1="-9.48944" y1="18.0173" x2="19.9719" y2="36.8784" gradientUnits="userSpaceOnUse">
<stop stop-color="#2BEAED"/>
<stop offset="1" stop-color="#0FCCCE"/>
</linearGradient>
<clipPath id="clip0_2078_9516">
<rect width="152" height="31" fill="white"/>
</clipPath>
</defs>
</svg>
