<svg width="44" height="59" viewBox="0 0 44 59" fill="none" xmlns="http://www.w3.org/2000/svg">
<g clipPath="url(#clip0_2072_6940)">
<path d="M11.7534 40.12C4.82192 43.66 0 50.74 0 59H44C44 51.625 40.3836 45.135 34.6575 41.3C31.6438 39.825 29.5342 35.99 29.5342 33.04C29.5342 30.09 30.4384 28.32 32.5479 25.96C34.3562 23.6 35.5616 20.65 35.5616 17.7V15.635C35.2603 7.08 29.8356 0 19.2877 0C12.0548 0 5.72603 4.72 3.61644 11.505L0 24.485C0 25.075 0.30137 25.37 0.90411 25.37H3.0137C3.61644 25.37 3.91781 25.665 3.91781 26.255V33.335C3.91781 33.925 4.52055 34.515 5.12329 34.515H9.9452C10.8493 34.515 11.4521 35.105 11.4521 35.99L11.7534 40.12C11.7534 39.825 11.7534 39.825 11.7534 40.12Z" fill="#163749"/>
<path d="M6.02734 18.2898C7.53419 16.8148 9.64378 15.6348 12.0547 15.6348C14.4657 15.6348 16.5753 16.8148 17.7808 18.2898C16.5753 20.0598 14.4657 21.2398 12.0547 21.2398C9.64378 21.2398 7.53419 20.0598 6.02734 18.2898Z" fill="#163749"/>
</g>
<defs>
<clipPath id="clip0_2072_6940">
<rect width="44" height="59" fill="white"/>
</clipPath>
</defs>
</svg>
